# xmcd CD database file
#
# Track frame offsets:
#	150
#	16990
#	44168
#	68969
#	96537
#	120523
#	139300
#	170615
#	185393
#	213751
#	242217
#
# Disc length: 3507 seconds
#
# Revision: 0
# Processed by: cddbd v1.5.2PL0 Copyright (c) Steve Scherf et al.
# Submitted via: CDex 1.70beta2
#
DISCID=a40db10b
DTITLE=Pat Thomas - Plays the Music of Derek Bailey and Thelonious Monk
DYEAR=2007
DGENRE=Jazz
TTITLE0=Extraxt 1
TTITLE1=Extraxt 2
TTITLE2=Lets Call This
TTITLE3=Extraxt 3
TTITLE4=Pannonica
TTITLE5=Extraxt 4
TTITLE6=My Foolish Heart
TTITLE7=Extraxt 5
TTITLE8=In Walked Bud
TTITLE9=Along Come Betty
TTITLE10=Lets Cool One
EXTD=YEAR: 2007
EXTT0=
EXTT1=
EXTT2=
EXTT3=
EXTT4=
EXTT5=
EXTT6=
EXTT7=
EXTT8=
EXTT9=
EXTT10=
PLAYORDER=
